<svg id="Layer_1" data-name="Layer 1" xmlns="http://www.w3.org/2000/svg" viewBox="0 0 1000 1000"><defs><style>.cls-1{font-size:92.33px;font-family:FuturaBT-Medium, Futura Md BT;letter-spacing:0.2em;}.cls-2{letter-spacing:0.16em;}</style></defs><title>AS Black</title><polygon points="544.63 94.76 544.63 94.64 544.55 94.64 500 17.47 454.76 94.64 453.83 94.64 453.83 95.75 122.99 670.82 230.69 670.79 613.87 670.78 561.43 584.3 284.46 584.3 499.02 211.38 831.62 786.55 56.82 786.55 6.04 873.03 881.63 873.03 929.33 873.03 993.96 873.03 544.63 94.76"/><polygon points="688.4 771.96 801.61 771.91 647.26 504.78 633.88 480.51 633.24 480.51 633.21 480.47 633.11 480.51 476.81 480.51 500.81 438.68 509.75 460.35 621.57 460.55 500 246.33 453.83 324.83 454.1 325.48 365.16 480.52 364.58 480.51 313.8 569.66 572.29 569.03 638.89 685.42 113.75 685.42 64.51 771.91 688.37 771.91 688.4 771.96"/><text class="cls-1" transform="translate(1.93 960.76)">ABHIJ<tspan class="cls-2" x="338.44" y="0">O</tspan><tspan x="433.59" y="0">Y SARKAR</tspan></text></svg>