<svg id="Layer_1" data-name="Layer 1" xmlns="http://www.w3.org/2000/svg" viewBox="0 0 1000 1000"><defs><style>.cls-1,.cls-2{fill:#b71218;}.cls-2{font-size:92.43px;font-family:FuturaBT-Medium, Futura Md BT;letter-spacing:0.2em;}.cls-3{letter-spacing:0.16em;}</style></defs><title>AS Red</title><polygon class="cls-1" points="544.67 94.32 544.67 94.2 544.61 94.2 500 16.94 454.71 94.2 453.78 94.2 453.78 95.31 122.57 671.01 230.4 670.98 614 670.97 561.5 584.39 284.23 584.39 499.02 211.06 831.98 786.86 56.33 786.86 5.5 873.44 882.05 873.44 929.8 873.44 994.5 873.44 544.67 94.32"/><polygon class="cls-1" points="688.61 772.25 801.94 772.21 647.43 504.79 634.02 480.49 633.39 480.49 633.36 480.44 633.26 480.49 476.79 480.49 500.81 438.61 509.76 460.31 621.7 460.51 500 246.05 453.78 324.64 454.05 325.29 365.01 480.5 364.43 480.49 313.6 569.74 572.37 569.11 639.04 685.63 113.33 685.63 64.03 772.21 688.58 772.21 688.61 772.25"/><text class="cls-2" transform="translate(1.39 961.26)">ABHIJ<tspan class="cls-3" x="338.81" y="0">O</tspan><tspan x="434.06" y="0">Y SARKAR</tspan></text></svg>